<?xml version="1.0" standalone="no"?>
<!DOCTYPE svg PUBLIC "-//W3C//DTD SVG 20010904//EN"
 "http://www.w3.org/TR/2001/REC-SVG-20010904/DTD/svg10.dtd">
<svg version="1.0" xmlns="http://www.w3.org/2000/svg"
 width="300.000000pt" height="300.000000pt" viewBox="0 0 300.000000 300.000000"
 preserveAspectRatio="xMidYMid meet">
<metadata>
Created by potrace 1.10, written by Peter Selinger 2001-2011
</metadata>
<g transform="translate(0.000000,300.000000) scale(0.050000,-0.050000)"
fill="#000000" stroke="none">
<path d="M2620 4782 c-1728 -381 -2034 -2621 -466 -3409 1440 -724 3070 673
2564 2196 -285 856 -1233 1404 -2098 1213z m720 -275 c682 -162 1189 -801
1188 -1497 -2 -1630 -2171 -2167 -2945 -729 -624 1159 460 2533 1757 2226z"/>
<path d="M2887 4350 c-7 -18 -3 -42 9 -54 30 -30 88 -3 80 39 -9 46 -73 57
-89 15z"/>
<path d="M3386 4278 c-31 -31 -10 -78 35 -78 49 0 68 35 38 71 -29 35 -44 36
-73 7z"/>
<path d="M2453 4232 c-15 -40 39 -94 79 -79 45 18 26 96 -24 103 -24 3 -48 -7
-55 -24z"/>
<path d="M2865 4162 c-112 -53 -107 -66 18 -50 88 12 102 9 92 -17 -11 -28 17
-32 124 -16 5 0 -9 15 -30 32 -38 31 -38 31 1 22 22 -5 76 -16 120 -23 77 -13
270 -86 270 -103 0 -4 -8 -23 -19 -42 -10 -19 -23 -48 -29 -65 -6 -16 -25 -49
-43 -73 -27 -37 -27 -43 0 -54 19 -7 42 10 65 48 24 41 45 56 70 48 38 -12 50
20 16 41 -25 16 -26 50 -2 50 32 0 142 -102 142 -132 0 -15 -19 -28 -41 -28
-24 0 -36 -9 -28 -21 7 -11 1 -34 -12 -50 -33 -40 -6 -63 39 -35 28 17 43 17
62 0 20 -19 22 -13 12 31 -16 69 14 72 44 5 21 -46 104 -73 104 -33 0 37 -130
208 -215 283 -222 196 -559 276 -760 182z"/>
<path d="M2100 4030 c-22 -27 -21 -37 5 -64 43 -43 100 -19 91 39 -7 54 -60
68 -96 25z"/>
<path d="M3727 4029 c-7 -18 -3 -41 9 -53 31 -31 84 -4 84 43 0 50 -75 57 -93
10z"/>
<path d="M3149 3999 c-24 -26 -35 -66 -32 -110 2 -38 -5 -69 -16 -69 -12 0
-21 -45 -21 -100 0 -149 -49 -135 -85 25 -27 118 -26 125 8 131 43 8 43 6 17
73 l-19 51 -279 0 -279 0 -42 -59 -42 -59 66 -6 66 -6 -37 -125 c-27 -91 -47
-125 -72 -125 -45 0 -215 -112 -229 -151 -9 -21 2 -29 38 -29 l50 0 -40 -55
c-93 -128 -90 -319 7 -465 l51 -78 -73 -6 c-40 -3 -76 -17 -81 -30 -6 -19 116
-23 522 -20 l530 4 -68 56 c-224 184 -33 544 240 454 229 -75 252 -363 40
-494 -31 -19 19 -24 258 -25 228 -1 294 5 288 24 -4 14 -46 28 -92 31 -81 6
-83 7 -53 50 16 23 30 67 30 97 0 41 11 56 45 61 56 8 81 156 26 156 -26 0
-31 30 -31 180 0 170 -2 180 -45 189 -84 19 -383 51 -479 51 l-96 0 0 100 c0
61 -9 100 -23 100 -16 0 -19 34 -10 110 15 124 14 126 -38 69z m-260 -164 c44
-206 83 -535 63 -535 -6 0 -42 48 -79 107 -79 123 -148 178 -268 214 -47 14
-85 31 -85 37 0 13 37 156 50 197 17 51 308 33 319 -20z m-214 -415 c243 -148
169 -538 -105 -561 -131 -11 -173 2 -253 77 -264 247 50 672 358 484z m945 10
c0 -21 -21 -30 -68 -30 -37 0 -78 14 -92 30 -22 26 -12 30 68 30 68 0 92 -8
92 -30z m160 -102 c0 -94 -5 -110 -32 -100 -17 7 -35 12 -40 12 -4 0 -8 45 -8
100 0 87 5 100 40 100 35 0 40 -13 40 -112z"/>
<path d="M2430 3337 c-187 -103 -122 -377 90 -377 214 0 278 280 86 378 -54
28 -124 27 -176 -1z m140 -177 c0 -37 -12 -52 -45 -56 -49 -7 -77 36 -57 87
20 53 102 28 102 -31z"/>
<path d="M1894 3833 c-15 -39 36 -81 77 -65 18 6 29 28 25 47 -8 44 -87 57
-102 18z"/>
<path d="M3981 3751 c-53 -64 25 -164 87 -112 38 31 41 84 8 117 -32 32 -66
30 -95 -5z"/>
<path d="M1817 3625 c-147 -5 -196 -13 -205 -36 -6 -18 1 -29 21 -29 22 0 28
-13 21 -45 -6 -25 -17 -77 -24 -116 -10 -55 -27 -77 -72 -93 -57 -22 -82 -86
-33 -86 34 1 183 36 310 72 128 37 147 105 46 157 -68 36 -101 39 -101 11 0
-11 14 -20 30 -20 55 0 31 -56 -33 -78 -86 -30 -101 -28 -90 13 5 19 15 68 22
108 l12 73 115 -5 114 -5 14 -78 c32 -182 32 -182 -134 -231 -140 -40 -150
-47 -150 -98 0 -70 -18 -119 -45 -119 -12 0 -16 32 -10 80 l11 80 -80 0 c-86
0 -101 -44 -18 -57 61 -9 50 -90 -13 -99 -48 -7 -57 -57 -32 -181 l12 -63 138
0 c130 0 183 27 102 52 -19 6 -51 19 -70 29 -19 11 -53 19 -75 19 -77 0 -39
38 44 44 75 5 85 12 100 70 31 121 186 185 300 124 40 -22 41 -19 29 59 -8 47
-5 86 7 93 28 17 25 71 -4 65 -25 -5 -50 74 -54 171 -1 36 6 51 20 43 13 -9
19 3 15 32 -8 54 4 52 -240 44z"/>
<path d="M4030 3503 c-22 -22 -8 -63 21 -63 21 0 28 -12 21 -35 -5 -19 -16
-62 -24 -95 -8 -33 -31 -72 -51 -86 -58 -41 -50 -94 8 -56 45 29 107 41 189
35 65 -5 186 -128 186 -190 0 -38 -8 -49 -30 -40 -16 6 -26 17 -22 24 14 25
-27 103 -55 103 -16 0 -34 14 -40 30 -31 79 -276 -6 -302 -105 -6 -25 -21 -45
-31 -45 -11 0 -20 -13 -20 -30 0 -16 9 -30 20 -30 11 0 20 -12 20 -27 0 -160
369 -153 425 10 8 22 28 29 63 22 51 -9 52 -7 52 98 -1 129 -13 151 -89 160
-32 4 -61 17 -66 30 -5 17 13 19 64 7 49 -11 71 -9 71 7 -1 54 -42 77 -178 97
-113 16 -142 28 -133 50 6 16 11 38 11 48 0 10 36 18 80 18 81 0 92 10 64 54
-15 24 -232 31 -254 9z m199 -467 c97 -140 -93 -270 -194 -133 -33 44 -35 59
-14 100 48 91 155 108 208 33z"/>
<path d="M4081 2991 c-21 -25 -21 -37 0 -62 40 -48 109 -29 109 31 0 60 -69
79 -109 31z"/>
<path d="M3172 3122 c-48 -53 -35 -145 26 -175 61 -30 124 -8 161 58 63 111
-100 213 -187 117z"/>
<path d="M1829 3031 c-57 -57 -61 -91 -20 -170 72 -139 291 -83 291 75 0 130
-174 192 -271 95z m167 -96 c6 -48 0 -55 -45 -55 -56 0 -83 40 -63 91 20 54
101 27 108 -36z"/>
<path d="M4353 2827 c-26 -27 -12 -47 35 -47 26 0 53 14 59 30 12 31 -66 45
-94 17z"/>
<path d="M1529 2645 c38 -203 94 -295 186 -301 90 -7 121 29 34 40 -68 8 -54
47 16 43 37 -2 55 7 55 27 0 18 -12 26 -28 20 -15 -6 -45 1 -65 17 -33 25 -26
28 70 28 95 1 106 -3 92 -34 -8 -19 -21 -75 -27 -125 l-12 -89 -85 6 c-47 3
-85 0 -85 -8 0 -27 178 -260 257 -337 l80 -77 188 53 c111 32 261 57 367 63
l178 10 -120 -37 c-165 -50 -397 -140 -438 -170 -31 -22 -21 -32 86 -83 l120
-57 166 110 c262 175 496 316 496 298 0 -36 -136 -201 -275 -335 -167 -159
-167 -158 25 -177 l140 -14 66 91 c91 127 124 215 124 332 0 120 21 127 89 26
57 -83 71 -260 28 -354 -13 -28 -19 -56 -13 -62 19 -18 338 92 349 121 37 97
-243 404 -475 521 l-138 70 0 118 c0 134 60 178 205 151 82 -16 137 31 102 87
-29 45 -76 51 -113 14 -17 -17 -41 -31 -54 -31 -12 0 -49 -14 -81 -31 l-59
-30 0 60 c0 41 -10 61 -30 61 -22 0 -30 -22 -30 -80 l0 -80 -278 0 c-222 0
-282 6 -302 30 -22 26 -10 30 88 30 86 0 112 7 112 30 0 24 -30 30 -150 30
-87 0 -150 8 -150 20 0 12 80 20 200 20 120 0 200 -8 200 -20 0 -11 -13 -20
-30 -20 -16 0 -30 -13 -30 -30 0 -24 30 -30 150 -30 l150 0 0 70 c0 71 114
109 150 50 7 -12 21 -15 31 -9 65 40 -23 49 -471 49 l-490 0 0 -57 c0 -73
-218 -133 -328 -91 -61 23 -32 48 56 48 143 0 212 20 212 63 0 34 -19 37 -262
37 l-262 0 13 -75z m769 -137 c34 -28 69 -80 78 -115 23 -89 181 -100 238 -16
19 29 33 60 30 68 -2 8 46 15 106 15 77 0 109 -7 105 -25 -3 -14 11 -22 31
-19 52 9 41 -142 -11 -152 -26 -5 -35 6 -35 41 0 135 -181 141 -197 7 l-6 -57
-128 11 c-117 11 -130 9 -151 -30 -69 -130 -278 -269 -278 -186 0 17 12 30 28
30 44 0 232 191 232 237 0 144 -160 247 -283 181 -103 -55 -107 -257 -7 -313
48 -27 22 -98 -50 -135 -73 -38 -100 -38 -100 0 0 17 12 30 26 30 79 0 106 55
54 110 -188 200 108 495 318 318z m-78 -88 c72 -72 25 -200 -74 -200 -40 0
-106 75 -106 120 0 47 67 120 110 120 17 0 48 -18 70 -40z m553 -91 c17 -44
-25 -85 -56 -54 -25 25 -9 85 23 85 12 0 27 -14 33 -31z m-333 -146 c0 -61
-61 -130 -135 -152 -70 -21 -56 36 15 63 44 16 64 40 73 84 15 78 47 81 47 5z
m180 8 c0 -58 -71 -142 -135 -161 -60 -17 -61 33 -2 60 43 20 64 48 85 115 16
52 52 42 52 -14z m180 0 c0 -63 -74 -146 -145 -162 -73 -18 -58 28 25 75 33
19 60 51 60 72 0 20 6 43 13 51 27 27 47 12 47 -36z m180 0 c0 -63 -74 -146
-145 -162 -71 -17 -73 20 -2 55 53 26 74 53 95 121 16 52 52 42 52 -14z"/>
<path d="M2107 2370 c-16 -41 6 -90 40 -90 15 0 39 14 53 30 29 35 -4 90 -53
90 -16 0 -33 -13 -40 -30z"/>
<path d="M3640 2673 c-107 -21 -103 -22 170 -35 154 -7 346 -29 426 -48 81
-18 149 -31 153 -27 41 50 25 113 -32 125 -99 19 -596 9 -717 -15z"/>
<path d="M3400 2562 c-60 -19 -7 -31 219 -51 167 -15 400 -80 546 -154 l115
-58 34 72 c43 89 38 93 -204 151 -191 47 -616 70 -710 40z"/>
<path d="M3225 2467 c-59 -13 -58 -47 2 -47 181 0 608 -173 771 -312 l87 -76
58 64 c73 83 72 94 -18 150 -240 148 -703 262 -900 221z"/>
<path d="M3043 2351 c4 -22 54 -53 134 -83 175 -66 376 -204 519 -357 l120
-128 82 63 c103 79 102 86 -25 188 -279 223 -855 443 -830 317z"/>
</g>
</svg>
