<svg xmlns="http://www.w3.org/2000/svg" xmlns:xlink="http://www.w3.org/1999/xlink" width="1080" zoomAndPan="magnify" viewBox="0 0 810 809.999993" height="1080" preserveAspectRatio="xMidYMid meet" version="1.0"><path fill="#909d00" d="M 328.679688 14.394531 C -49.636719 97.808594 -116.632812 588.222656 226.65625 760.742188 C 541.921875 919.25 898.78125 613.398438 788.003906 279.960938 C 725.605469 92.554688 518.058594 -27.421875 328.679688 14.394531 Z M 486.3125 74.601562 C 635.625 110.070312 746.625 249.96875 746.40625 402.347656 C 745.96875 759.207031 271.101562 876.777344 101.644531 561.949219 C -34.96875 308.203125 202.355469 7.390625 486.3125 74.601562 Z M 486.3125 74.601562 " fill-opacity="1" fill-rule="nonzero"/><path fill="#909d00" d="M 387.136719 108.976562 C 385.601562 112.917969 386.476562 118.171875 389.105469 120.796875 C 395.671875 127.367188 408.371094 121.453125 406.621094 112.257812 C 404.648438 102.1875 390.636719 99.78125 387.136719 108.976562 Z M 387.136719 108.976562 " fill-opacity="1" fill-rule="nonzero"/><path fill="#909d00" d="M 496.382812 124.738281 C 489.597656 131.527344 494.195312 141.816406 504.046875 141.816406 C 514.773438 141.816406 518.933594 134.152344 512.363281 126.269531 C 506.015625 118.609375 502.730469 118.390625 496.382812 124.738281 Z M 496.382812 124.738281 " fill-opacity="1" fill-rule="nonzero"/><path fill="#909d00" d="M 292.117188 134.808594 C 288.832031 143.566406 300.65625 155.390625 309.414062 152.105469 C 319.265625 148.164062 315.105469 131.085938 304.160156 129.554688 C 298.90625 128.898438 293.648438 131.085938 292.117188 134.808594 Z M 292.117188 134.808594 " fill-opacity="1" fill-rule="nonzero"/><path fill="#909d00" d="M 382.320312 150.136719 C 357.796875 161.738281 358.890625 164.585938 386.257812 161.082031 C 405.523438 158.453125 408.589844 159.109375 406.402344 164.804688 C 403.992188 170.933594 410.121094 171.808594 433.550781 168.304688 C 434.644531 168.304688 431.578125 165.023438 426.980469 161.300781 C 418.660156 154.511719 418.660156 154.511719 427.199219 156.484375 C 432.015625 157.578125 443.839844 159.988281 453.472656 161.519531 C 470.328125 164.367188 512.582031 180.347656 512.582031 184.070312 C 512.582031 184.945312 510.832031 189.105469 508.425781 193.265625 C 506.234375 197.425781 503.390625 203.773438 502.074219 207.496094 C 500.761719 211 496.601562 218.222656 492.660156 223.476562 C 486.75 231.578125 486.75 232.890625 492.660156 235.300781 C 496.820312 236.832031 501.855469 233.109375 506.890625 224.792969 C 512.144531 215.816406 516.742188 212.53125 522.21875 214.28125 C 530.535156 216.910156 533.164062 209.902344 525.71875 205.304688 C 520.246094 201.804688 520.027344 194.359375 525.28125 194.359375 C 532.289062 194.359375 556.371094 216.691406 556.371094 223.257812 C 556.371094 226.542969 552.210938 229.390625 547.394531 229.390625 C 542.140625 229.390625 539.511719 231.359375 541.265625 233.988281 C 542.796875 236.394531 541.484375 241.429688 538.636719 244.933594 C 531.414062 253.691406 537.324219 258.726562 547.175781 252.597656 C 553.304688 248.875 556.589844 248.875 560.75 252.597656 C 565.128906 256.753906 565.566406 255.441406 563.375 245.808594 C 559.875 230.703125 566.441406 230.046875 573.007812 244.714844 C 577.605469 254.785156 595.777344 260.695312 595.777344 251.9375 C 595.777344 243.839844 567.316406 206.402344 548.707031 189.980469 C 500.105469 147.070312 426.324219 129.554688 382.320312 150.136719 Z M 382.320312 150.136719 " fill-opacity="1" fill-rule="nonzero"/><path fill="#909d00" d="M 214.835938 179.035156 C 210.019531 184.945312 210.238281 187.132812 215.929688 193.046875 C 225.34375 202.460938 237.820312 197.207031 235.851562 184.507812 C 234.320312 172.683594 222.714844 169.621094 214.835938 179.035156 Z M 214.835938 179.035156 " fill-opacity="1" fill-rule="nonzero"/><path fill="#909d00" d="M 571.039062 179.253906 C 569.507812 183.195312 570.382812 188.230469 573.007812 190.855469 C 579.796875 197.644531 591.398438 191.730469 591.398438 181.441406 C 591.398438 170.496094 574.980469 168.964844 571.039062 179.253906 Z M 571.039062 179.253906 " fill-opacity="1" fill-rule="nonzero"/><path fill="#909d00" d="M 444.496094 185.820312 C 439.242188 191.511719 436.832031 200.269531 437.488281 209.902344 C 437.925781 218.222656 436.394531 225.011719 433.988281 225.011719 C 431.359375 225.011719 429.390625 234.863281 429.390625 246.902344 C 429.390625 279.523438 418.660156 276.460938 410.78125 241.429688 C 404.867188 215.597656 405.085938 214.0625 412.53125 212.75 C 421.945312 211 421.945312 211.4375 416.253906 196.769531 L 412.09375 185.601562 L 289.929688 185.601562 L 271.539062 211.4375 L 300.4375 214.0625 L 292.335938 241.429688 C 286.425781 261.351562 282.046875 268.796875 276.574219 268.796875 C 266.722656 268.796875 229.503906 293.316406 226.4375 301.855469 C 224.46875 306.453125 226.875 308.203125 234.757812 308.203125 L 245.703125 308.203125 L 236.945312 320.246094 C 216.585938 348.269531 217.242188 390.085938 238.480469 422.050781 L 249.644531 439.128906 L 233.664062 440.441406 C 224.90625 441.097656 217.023438 444.164062 215.929688 447.007812 C 214.617188 451.167969 241.324219 452.042969 330.210938 451.386719 L 446.246094 450.511719 L 431.359375 438.25 C 382.320312 397.96875 424.132812 319.152344 483.902344 338.855469 C 534.039062 355.277344 539.074219 418.328125 492.660156 447.007812 C 485.875 451.167969 496.820312 452.261719 549.144531 452.480469 C 599.0625 452.699219 613.511719 451.386719 612.199219 447.226562 C 611.324219 444.164062 602.128906 441.097656 592.058594 440.441406 C 574.324219 439.128906 573.886719 438.910156 580.453125 429.496094 C 583.957031 424.457031 587.019531 414.824219 587.019531 408.257812 C 587.019531 399.28125 589.429688 395.996094 596.875 394.902344 C 609.132812 393.152344 614.605469 360.75 602.566406 360.75 C 596.875 360.75 595.777344 354.179688 595.777344 321.339844 C 595.777344 284.121094 595.339844 281.933594 585.925781 279.960938 C 567.535156 275.804688 502.074219 268.796875 481.058594 268.796875 L 460.039062 268.796875 L 460.039062 246.902344 C 460.039062 233.546875 458.070312 225.011719 455.003906 225.011719 C 451.5 225.011719 450.84375 217.566406 452.816406 200.925781 C 456.097656 173.78125 455.878906 173.34375 444.496094 185.820312 Z M 387.574219 221.726562 C 397.207031 266.828125 405.746094 338.855469 401.367188 338.855469 C 400.050781 338.855469 392.171875 328.347656 384.070312 315.429688 C 366.773438 288.5 351.667969 276.460938 325.394531 268.578125 C 315.105469 265.511719 306.785156 261.792969 306.785156 260.476562 C 306.785156 257.632812 314.886719 226.324219 317.734375 217.347656 C 321.453125 206.183594 385.164062 210.121094 387.574219 221.726562 Z M 340.722656 312.582031 C 393.921875 344.984375 377.722656 430.371094 317.734375 435.40625 C 289.050781 437.8125 279.859375 434.96875 262.34375 418.546875 C 204.542969 364.472656 273.289062 271.425781 340.722656 312.582031 Z M 547.613281 310.394531 C 547.613281 314.992188 543.015625 316.960938 532.726562 316.960938 C 524.625 316.960938 515.648438 313.898438 512.582031 310.394531 C 507.765625 304.703125 509.957031 303.828125 527.472656 303.828125 C 542.359375 303.828125 547.613281 305.578125 547.613281 310.394531 Z M 582.644531 332.726562 C 582.644531 353.304688 581.546875 356.808594 575.636719 354.617188 C 571.914062 353.085938 567.972656 351.992188 566.878906 351.992188 C 566.003906 351.992188 565.128906 342.140625 565.128906 330.097656 C 565.128906 311.050781 566.222656 308.203125 573.886719 308.203125 C 581.546875 308.203125 582.644531 311.050781 582.644531 332.726562 Z M 582.644531 332.726562 " fill-opacity="1" fill-rule="nonzero"/><path fill="#909d00" d="M 287.082031 330.753906 C 246.140625 353.304688 260.371094 413.292969 306.785156 413.292969 C 353.636719 413.292969 367.648438 351.992188 325.613281 330.535156 C 313.792969 324.40625 298.46875 324.625 287.082031 330.753906 Z M 317.734375 369.507812 C 317.734375 377.605469 315.105469 380.890625 307.882812 381.765625 C 297.152344 383.300781 291.023438 373.886719 295.402344 362.71875 C 299.78125 351.117188 317.734375 356.589844 317.734375 369.507812 Z M 317.734375 369.507812 " fill-opacity="1" fill-rule="nonzero"/><path fill="#909d00" d="M 169.734375 222.164062 C 166.449219 230.703125 177.617188 239.898438 186.589844 236.394531 C 190.53125 235.082031 192.941406 230.265625 192.066406 226.105469 C 190.3125 216.472656 173.019531 213.625 169.734375 222.164062 Z M 169.734375 222.164062 " fill-opacity="1" fill-rule="nonzero"/><path fill="#909d00" d="M 626.648438 240.117188 C 615.042969 254.128906 632.121094 276.023438 645.695312 264.636719 C 654.015625 257.851562 654.671875 246.246094 647.445312 239.023438 C 640.441406 232.015625 632.996094 232.453125 626.648438 240.117188 Z M 626.648438 240.117188 " fill-opacity="1" fill-rule="nonzero"/><path fill="#909d00" d="M 152.875 267.703125 C 120.691406 268.796875 109.964844 270.546875 107.996094 275.582031 C 106.679688 279.523438 108.214844 281.933594 112.59375 281.933594 C 117.410156 281.933594 118.722656 284.777344 117.191406 291.785156 C 115.875 297.257812 113.46875 308.644531 111.933594 317.179688 C 109.746094 329.222656 106.023438 334.039062 96.171875 337.542969 C 83.691406 342.359375 78.21875 356.371094 88.949219 356.371094 C 96.390625 356.152344 129.011719 348.488281 156.816406 340.605469 C 184.839844 332.507812 189 317.617188 166.886719 306.234375 C 152 298.351562 144.777344 297.695312 144.777344 303.828125 C 144.777344 306.234375 147.839844 308.203125 151.34375 308.203125 C 163.386719 308.203125 158.128906 320.464844 144.117188 325.28125 C 125.289062 331.851562 122.007812 331.410156 124.414062 322.4375 C 125.507812 318.277344 127.699219 307.546875 129.230469 298.789062 L 131.859375 282.808594 L 157.035156 283.902344 L 181.996094 284.996094 L 185.058594 302.074219 C 192.066406 341.921875 192.066406 341.921875 155.722656 352.648438 C 125.070312 361.40625 122.882812 362.9375 122.882812 374.105469 C 122.882812 389.429688 118.941406 400.15625 113.03125 400.15625 C 110.402344 400.15625 109.527344 393.152344 110.839844 382.640625 L 113.25 365.128906 L 95.734375 365.128906 C 76.90625 365.128906 73.621094 374.761719 91.792969 377.605469 C 105.148438 379.578125 102.738281 397.3125 88.949219 399.28125 C 78.4375 400.8125 76.46875 411.761719 81.941406 438.910156 L 84.570312 452.699219 L 114.78125 452.699219 C 143.242188 452.699219 154.847656 446.789062 137.113281 441.316406 C 132.953125 440.003906 125.945312 437.15625 121.789062 434.96875 C 117.628906 432.558594 110.183594 430.808594 105.367188 430.808594 C 88.507812 430.808594 96.828125 422.488281 115 421.175781 C 131.421875 420.078125 133.609375 418.546875 136.894531 405.847656 C 143.679688 379.359375 177.617188 365.347656 202.574219 378.703125 C 211.332031 383.519531 211.550781 382.859375 208.921875 365.785156 C 207.171875 355.496094 207.828125 346.957031 210.457031 345.421875 C 216.585938 341.703125 215.929688 329.878906 209.578125 331.191406 C 204.105469 332.289062 198.632812 314.992188 197.757812 293.753906 C 197.539062 285.875 199.070312 282.589844 202.136719 284.339844 C 204.980469 286.3125 206.296875 283.683594 205.421875 277.335938 C 203.667969 265.511719 206.296875 265.949219 152.875 267.703125 Z M 152.875 267.703125 " fill-opacity="1" fill-rule="nonzero"/><path fill="#909d00" d="M 637.375 294.414062 C 632.558594 299.230469 635.625 308.203125 641.972656 308.203125 C 646.570312 308.203125 648.105469 310.832031 646.570312 315.867188 C 645.476562 320.027344 643.066406 329.441406 641.316406 336.667969 C 639.566406 343.890625 634.53125 352.429688 630.152344 355.496094 C 617.453125 364.472656 619.203125 376.074219 631.902344 367.753906 C 641.753906 361.40625 655.328125 358.777344 673.28125 360.09375 C 687.511719 361.1875 714.003906 388.117188 714.003906 401.691406 C 714.003906 410.007812 712.25 412.417969 707.433594 410.445312 C 703.933594 409.132812 701.742188 406.726562 702.617188 405.191406 C 705.683594 399.71875 696.707031 382.640625 690.578125 382.640625 C 687.074219 382.640625 683.132812 379.578125 681.820312 376.074219 C 675.03125 358.777344 621.394531 377.386719 615.703125 399.0625 C 614.386719 404.535156 611.105469 408.914062 608.914062 408.914062 C 606.507812 408.914062 604.535156 411.761719 604.535156 415.484375 C 604.535156 418.984375 606.507812 422.050781 608.914062 422.050781 C 611.324219 422.050781 613.292969 424.675781 613.292969 427.960938 C 613.292969 462.992188 694.078125 461.457031 706.339844 425.773438 C 708.089844 420.957031 712.46875 419.421875 720.132812 420.957031 C 731.296875 422.925781 731.515625 422.488281 731.515625 399.5 C 731.296875 371.257812 728.671875 366.441406 712.03125 364.472656 C 705.027344 363.59375 698.675781 360.75 697.582031 357.902344 C 696.488281 354.179688 700.429688 353.742188 711.59375 356.371094 C 722.324219 358.777344 727.140625 358.339844 727.140625 354.835938 C 726.917969 343.015625 717.945312 337.980469 688.167969 333.601562 C 663.429688 330.097656 657.082031 327.472656 659.050781 322.65625 C 660.363281 319.152344 661.457031 314.335938 661.457031 312.144531 C 661.457031 309.957031 669.339844 308.203125 678.972656 308.203125 C 696.707031 308.203125 699.117188 306.015625 692.984375 296.382812 C 689.703125 291.128906 642.191406 289.59375 637.375 294.414062 Z M 680.945312 396.652344 C 702.179688 427.304688 660.582031 455.765625 638.472656 425.773438 C 631.246094 416.140625 630.808594 412.855469 635.40625 403.878906 C 645.914062 383.957031 669.339844 380.234375 680.945312 396.652344 Z M 680.945312 396.652344 " fill-opacity="1" fill-rule="nonzero"/><path fill="#909d00" d="M 648.542969 406.507812 C 643.945312 411.980469 643.945312 414.605469 648.542969 420.078125 C 657.300781 430.589844 672.40625 426.429688 672.40625 413.292969 C 672.40625 400.15625 657.300781 395.996094 648.542969 406.507812 Z M 648.542969 406.507812 " fill-opacity="1" fill-rule="nonzero"/><path fill="#909d00" d="M 449.53125 377.824219 C 439.023438 389.429688 441.867188 409.570312 455.222656 416.140625 C 468.578125 422.707031 482.371094 417.890625 490.472656 403.441406 C 504.265625 379.140625 468.578125 356.808594 449.53125 377.824219 Z M 449.53125 377.824219 " fill-opacity="1" fill-rule="nonzero"/><path fill="#909d00" d="M 155.503906 397.75 C 143.023438 410.226562 142.148438 417.671875 151.125 434.96875 C 166.886719 465.398438 214.835938 453.140625 214.835938 418.546875 C 214.835938 390.085938 176.738281 376.511719 155.503906 397.75 Z M 192.066406 418.765625 C 193.378906 429.273438 192.066406 430.808594 182.214844 430.808594 C 169.953125 430.808594 164.042969 422.050781 168.421875 410.886719 C 172.800781 399.0625 190.53125 404.972656 192.066406 418.765625 Z M 192.066406 418.765625 " fill-opacity="1" fill-rule="nonzero"/><path fill="#909d00" d="M 708.089844 442.410156 C 702.398438 448.324219 705.464844 452.699219 715.753906 452.699219 C 721.445312 452.699219 727.359375 449.636719 728.671875 446.132812 C 731.296875 439.347656 714.222656 436.28125 708.089844 442.410156 Z M 708.089844 442.410156 " fill-opacity="1" fill-rule="nonzero"/><path fill="#909d00" d="M 89.824219 482.257812 C 98.144531 526.699219 110.402344 546.84375 130.542969 548.15625 C 150.25 549.6875 157.035156 541.808594 137.988281 539.398438 C 123.101562 537.648438 126.167969 529.109375 141.492188 529.984375 C 149.59375 530.421875 153.53125 528.453125 153.53125 524.074219 C 153.53125 520.132812 150.90625 518.382812 147.402344 519.695312 C 144.117188 521.007812 137.550781 519.476562 133.171875 515.972656 C 125.945312 510.5 127.480469 509.84375 148.496094 509.84375 C 169.296875 509.625 171.703125 510.5 168.640625 517.285156 C 166.886719 521.445312 164.042969 533.707031 162.726562 544.652344 L 160.101562 564.136719 L 141.492188 562.824219 C 131.203125 562.167969 122.882812 562.824219 122.882812 564.578125 C 122.882812 570.488281 161.851562 621.5 179.148438 638.355469 L 196.664062 655.214844 L 237.820312 643.609375 C 262.125 636.605469 294.964844 631.132812 318.171875 629.820312 L 357.140625 627.628906 L 330.867188 635.730469 C 294.746094 646.675781 243.953125 666.378906 234.976562 672.949219 C 228.1875 677.765625 230.378906 679.953125 253.804688 691.121094 L 280.078125 703.597656 L 316.417969 679.515625 C 373.78125 641.203125 425.011719 610.332031 425.011719 614.273438 C 425.011719 622.15625 395.234375 658.28125 364.804688 687.617188 C 328.242188 722.425781 328.242188 722.207031 370.277344 726.367188 L 400.929688 729.433594 L 415.378906 709.511719 C 435.300781 681.707031 442.523438 662.441406 442.523438 636.824219 C 442.523438 610.550781 447.121094 609.019531 462.011719 631.132812 C 474.488281 649.304688 477.554688 688.054688 468.140625 708.632812 C 465.292969 714.765625 463.980469 720.894531 465.292969 722.207031 C 469.453125 726.148438 539.292969 702.066406 541.703125 695.71875 C 549.800781 674.480469 488.5 607.269531 437.707031 581.652344 L 407.496094 566.328125 L 407.496094 540.492188 C 407.496094 511.15625 420.632812 501.523438 452.378906 507.433594 C 470.328125 510.9375 482.371094 500.648438 474.707031 488.386719 C 468.359375 478.535156 458.070312 477.222656 449.96875 485.320312 C 446.246094 489.042969 440.992188 492.109375 438.144531 492.109375 C 435.519531 492.109375 427.417969 495.175781 420.414062 498.894531 L 407.496094 505.464844 L 407.496094 492.328125 C 407.496094 483.351562 405.304688 478.972656 400.929688 478.972656 C 396.109375 478.972656 394.359375 483.789062 394.359375 496.488281 L 394.359375 514.003906 L 333.496094 514.003906 C 284.894531 514.003906 271.757812 512.6875 267.378906 507.433594 C 262.5625 501.742188 265.1875 500.867188 286.644531 500.867188 C 305.472656 500.867188 311.164062 499.335938 311.164062 494.296875 C 311.164062 489.042969 304.597656 487.730469 278.324219 487.730469 C 259.277344 487.730469 245.484375 485.980469 245.484375 483.351562 C 245.484375 480.726562 263 478.972656 289.273438 478.972656 C 315.542969 478.972656 333.058594 480.726562 333.058594 483.351562 C 333.058594 485.761719 330.210938 487.730469 326.492188 487.730469 C 322.988281 487.730469 319.921875 490.578125 319.921875 494.296875 C 319.921875 499.554688 326.492188 500.867188 352.761719 500.867188 L 385.601562 500.867188 L 385.601562 485.542969 C 385.601562 469.996094 410.5625 461.675781 418.441406 474.59375 C 419.976562 477.222656 423.039062 477.878906 425.230469 476.566406 C 439.460938 467.808594 420.195312 465.835938 322.113281 465.835938 L 214.835938 465.835938 L 214.835938 478.316406 C 214.835938 494.296875 167.105469 507.433594 143.023438 498.238281 C 129.667969 493.203125 136.019531 487.730469 155.285156 487.730469 C 186.589844 487.730469 201.699219 483.351562 201.699219 473.9375 C 201.699219 466.492188 197.539062 465.835938 144.335938 465.835938 L 86.976562 465.835938 Z M 258.183594 512.25 C 265.625 518.382812 273.289062 529.765625 275.261719 537.429688 C 280.296875 556.914062 314.886719 559.320312 327.367188 540.929688 C 331.527344 534.582031 334.589844 527.796875 333.933594 526.042969 C 333.496094 524.292969 344.003906 522.761719 357.140625 522.761719 C 374 522.761719 381.003906 524.292969 380.128906 528.234375 C 379.472656 531.296875 382.539062 533.050781 386.914062 532.394531 C 398.300781 530.421875 395.890625 563.480469 384.507812 565.671875 C 378.816406 566.765625 376.84375 564.355469 376.84375 556.695312 C 376.84375 527.136719 337.21875 525.824219 333.714844 555.160156 L 332.402344 567.640625 L 304.378906 565.234375 C 278.761719 562.824219 275.917969 563.261719 271.320312 571.800781 C 256.210938 600.261719 210.457031 630.695312 210.457031 612.523438 C 210.457031 608.800781 213.082031 605.953125 216.585938 605.953125 C 226.21875 605.953125 267.378906 564.136719 267.378906 554.066406 C 267.378906 522.539062 232.347656 499.992188 205.421875 514.441406 C 182.871094 526.480469 181.996094 570.707031 203.886719 582.964844 C 214.394531 588.878906 208.703125 604.421875 192.941406 612.523438 C 176.957031 620.84375 171.046875 620.84375 171.046875 612.523438 C 171.046875 608.800781 173.675781 605.953125 176.738281 605.953125 C 194.035156 605.953125 199.945312 593.914062 188.5625 581.871094 C 147.402344 538.085938 212.207031 473.5 258.183594 512.25 Z M 241.105469 531.515625 C 256.871094 547.28125 246.578125 575.304688 224.90625 575.304688 C 216.148438 575.304688 201.699219 558.882812 201.699219 549.03125 C 201.699219 538.742188 216.367188 522.761719 225.78125 522.761719 C 229.503906 522.761719 236.289062 526.699219 241.105469 531.515625 Z M 362.175781 551.441406 C 365.898438 561.074219 356.703125 570.050781 349.917969 563.261719 C 344.441406 557.789062 347.945312 544.652344 354.953125 544.652344 C 357.578125 544.652344 360.863281 547.71875 362.175781 551.441406 Z M 289.273438 583.40625 C 289.273438 596.757812 275.917969 611.867188 259.714844 616.683594 C 244.390625 621.28125 247.457031 608.800781 263 602.890625 C 272.632812 599.386719 277.011719 594.132812 278.980469 584.5 C 282.265625 567.421875 289.273438 566.765625 289.273438 583.40625 Z M 328.679688 581.652344 C 328.679688 594.351562 313.136719 612.742188 299.125 616.902344 C 285.988281 620.625 285.769531 609.675781 298.6875 603.765625 C 308.101562 599.386719 312.699219 593.257812 317.296875 578.589844 C 320.796875 567.203125 328.679688 569.394531 328.679688 581.652344 Z M 368.085938 581.652344 C 368.085938 595.445312 351.886719 613.617188 336.34375 617.121094 C 320.359375 621.0625 323.644531 610.988281 341.816406 600.699219 C 349.039062 596.539062 354.953125 589.535156 354.953125 584.9375 C 354.953125 580.558594 356.265625 575.523438 357.796875 573.769531 C 363.710938 567.859375 368.085938 571.144531 368.085938 581.652344 Z M 407.496094 581.652344 C 407.496094 595.445312 391.292969 613.617188 375.75 617.121094 C 360.207031 620.84375 359.769531 612.742188 375.3125 605.078125 C 386.914062 599.386719 391.511719 593.476562 396.109375 578.589844 C 399.613281 567.203125 407.496094 569.394531 407.496094 581.652344 Z M 407.496094 581.652344 " fill-opacity="1" fill-rule="nonzero"/><path fill="#909d00" d="M 216.367188 542.464844 C 212.863281 551.441406 217.679688 562.167969 225.125 562.167969 C 228.40625 562.167969 233.664062 559.101562 236.726562 555.601562 C 243.078125 547.9375 235.851562 535.894531 225.125 535.894531 C 221.621094 535.894531 217.898438 538.742188 216.367188 542.464844 Z M 216.367188 542.464844 " fill-opacity="1" fill-rule="nonzero"/><path fill="#909d00" d="M 551.992188 476.128906 C 528.566406 480.726562 529.441406 480.945312 589.210938 483.789062 C 622.925781 485.320312 664.960938 490.140625 682.476562 494.296875 C 700.210938 498.238281 715.097656 501.085938 715.972656 500.210938 C 724.949219 489.261719 721.445312 475.46875 708.96875 472.84375 C 687.292969 468.683594 578.484375 470.871094 551.992188 476.128906 Z M 551.992188 476.128906 " fill-opacity="1" fill-rule="nonzero"/><path fill="#909d00" d="M 499.449219 500.429688 C 486.3125 504.589844 497.914062 507.214844 547.394531 511.59375 C 583.957031 514.878906 634.96875 529.109375 666.933594 545.308594 L 692.109375 558.007812 L 699.554688 542.246094 C 708.96875 522.761719 707.871094 521.882812 654.890625 509.1875 C 613.074219 498.894531 520.027344 493.859375 499.449219 500.429688 Z M 499.449219 500.429688 " fill-opacity="1" fill-rule="nonzero"/><path fill="#909d00" d="M 461.132812 521.226562 C 448.21875 524.074219 448.4375 531.515625 461.574219 531.515625 C 501.199219 531.515625 594.683594 569.394531 630.371094 599.824219 L 649.417969 616.464844 L 662.117188 602.453125 C 678.097656 584.28125 677.878906 581.871094 658.175781 569.613281 C 605.628906 537.210938 504.265625 512.25 461.132812 521.226562 Z M 461.132812 521.226562 " fill-opacity="1" fill-rule="nonzero"/><path fill="#909d00" d="M 421.289062 546.625 C 422.164062 551.441406 433.109375 558.226562 450.625 564.796875 C 488.9375 579.246094 532.945312 609.457031 564.253906 642.953125 L 590.523438 670.976562 L 608.476562 657.183594 C 631.027344 639.890625 630.808594 638.355469 603.003906 616.027344 C 541.921875 567.203125 415.816406 519.039062 421.289062 546.625 Z M 421.289062 546.625 " fill-opacity="1" fill-rule="nonzero"/></svg>