<svg xmlns="http://www.w3.org/2000/svg" xmlns:xlink="http://www.w3.org/1999/xlink" width="1080" zoomAndPan="magnify" viewBox="0 0 810 809.999993" height="1080" preserveAspectRatio="xMidYMid meet" version="1.0"><path fill="#000000" d="M 328.460938 14.257812 C -49.753906 97.648438 -116.730469 587.929688 226.464844 760.402344 C 541.644531 918.867188 898.410156 613.097656 787.660156 279.753906 C 725.28125 92.394531 517.789062 -27.546875 328.460938 14.257812 Z M 486.050781 74.449219 C 635.324219 109.90625 746.292969 249.765625 746.074219 402.105469 C 745.636719 758.871094 270.898438 876.40625 101.488281 561.664062 C -35.089844 307.988281 202.167969 7.253906 486.050781 74.449219 Z M 486.050781 74.449219 " fill-opacity="1" fill-rule="nonzero"/><path fill="#000000" d="M 386.898438 108.8125 C 385.367188 112.75 386.242188 118.003906 388.871094 120.628906 C 395.4375 127.195312 408.132812 121.285156 406.378906 112.09375 C 404.410156 102.027344 390.402344 99.617188 386.898438 108.8125 Z M 386.898438 108.8125 " fill-opacity="1" fill-rule="nonzero"/><path fill="#000000" d="M 496.117188 124.570312 C 489.332031 131.355469 493.929688 141.640625 503.78125 141.640625 C 514.503906 141.640625 518.664062 133.980469 512.097656 126.101562 C 505.75 118.441406 502.464844 118.222656 496.117188 124.570312 Z M 496.117188 124.570312 " fill-opacity="1" fill-rule="nonzero"/><path fill="#000000" d="M 291.910156 134.636719 C 288.625 143.394531 300.445312 155.210938 309.199219 151.929688 C 319.050781 147.988281 314.890625 130.917969 303.945312 129.386719 C 298.695312 128.730469 293.441406 130.917969 291.910156 134.636719 Z M 291.910156 134.636719 " fill-opacity="1" fill-rule="nonzero"/><path fill="#000000" d="M 382.085938 149.960938 C 357.570312 161.558594 358.664062 164.40625 386.023438 160.902344 C 405.285156 158.277344 408.351562 158.933594 406.160156 164.625 C 403.753906 170.753906 409.882812 171.628906 433.300781 168.125 C 434.394531 168.125 431.332031 164.84375 426.734375 161.121094 C 418.417969 154.335938 418.417969 154.335938 426.953125 156.308594 C 431.769531 157.402344 443.589844 159.808594 453.21875 161.339844 C 470.074219 164.1875 512.316406 180.164062 512.316406 183.886719 C 512.316406 184.761719 510.566406 188.917969 508.15625 193.078125 C 505.96875 197.238281 503.121094 203.585938 501.808594 207.304688 C 500.496094 210.808594 496.335938 218.03125 492.398438 223.28125 C 486.488281 231.382812 486.488281 232.695312 492.398438 235.101562 C 496.558594 236.632812 501.589844 232.914062 506.625 224.597656 C 511.878906 215.621094 516.472656 212.339844 521.945312 214.089844 C 530.261719 216.714844 532.890625 209.710938 525.449219 205.117188 C 519.976562 201.613281 519.757812 194.171875 525.011719 194.171875 C 532.015625 194.171875 556.089844 216.496094 556.089844 223.0625 C 556.089844 226.347656 551.933594 229.191406 547.117188 229.191406 C 541.863281 229.191406 539.238281 231.164062 540.988281 233.789062 C 542.519531 236.195312 541.207031 241.230469 538.363281 244.734375 C 531.140625 253.488281 537.046875 258.523438 546.898438 252.394531 C 553.027344 248.671875 556.308594 248.671875 560.46875 252.394531 C 564.847656 256.550781 565.285156 255.238281 563.09375 245.609375 C 559.59375 230.503906 566.160156 229.847656 572.726562 244.515625 C 577.320312 254.582031 595.488281 260.492188 595.488281 251.738281 C 595.488281 243.636719 567.035156 206.210938 548.429688 189.796875 C 499.839844 146.894531 426.078125 129.386719 382.085938 149.960938 Z M 382.085938 149.960938 " fill-opacity="1" fill-rule="nonzero"/><path fill="#000000" d="M 214.644531 178.851562 C 209.832031 184.761719 210.050781 186.949219 215.738281 192.859375 C 225.152344 202.269531 237.628906 197.019531 235.65625 184.324219 C 234.125 172.503906 222.523438 169.441406 214.644531 178.851562 Z M 214.644531 178.851562 " fill-opacity="1" fill-rule="nonzero"/><path fill="#000000" d="M 570.753906 179.070312 C 569.222656 183.011719 570.097656 188.042969 572.726562 190.671875 C 579.511719 197.457031 591.109375 191.546875 591.109375 181.257812 C 591.109375 170.316406 574.695312 168.78125 570.753906 179.070312 Z M 570.753906 179.070312 " fill-opacity="1" fill-rule="nonzero"/><path fill="#000000" d="M 444.246094 185.636719 C 438.992188 191.328125 436.585938 200.082031 437.242188 209.710938 C 437.679688 218.03125 436.148438 224.816406 433.738281 224.816406 C 431.113281 224.816406 429.144531 234.664062 429.144531 246.703125 C 429.144531 279.316406 418.417969 276.25 410.539062 241.230469 C 404.628906 215.402344 404.847656 213.871094 412.289062 212.558594 C 421.703125 210.808594 421.703125 211.246094 416.011719 196.578125 L 411.851562 185.417969 L 289.71875 185.417969 L 271.335938 211.246094 L 300.226562 213.871094 L 292.128906 241.230469 C 286.21875 261.148438 281.839844 268.589844 276.367188 268.589844 C 266.519531 268.589844 229.308594 293.105469 226.246094 301.640625 C 224.277344 306.238281 226.683594 307.988281 234.5625 307.988281 L 245.507812 307.988281 L 236.753906 320.027344 C 216.398438 348.042969 217.054688 389.847656 238.285156 421.800781 L 249.445312 438.875 L 233.46875 440.1875 C 224.714844 440.84375 216.835938 443.910156 215.738281 446.753906 C 214.425781 450.914062 241.128906 451.789062 329.992188 451.132812 L 445.996094 450.257812 L 431.113281 438 C 382.085938 397.726562 423.890625 318.929688 483.644531 338.628906 C 533.765625 355.046875 538.800781 418.082031 492.398438 446.753906 C 485.613281 450.914062 496.558594 452.007812 548.867188 452.226562 C 598.769531 452.445312 613.21875 451.132812 611.902344 446.972656 C 611.027344 443.910156 601.835938 440.84375 591.765625 440.1875 C 574.039062 438.875 573.601562 438.65625 580.167969 429.246094 C 583.667969 424.210938 586.734375 414.578125 586.734375 408.011719 C 586.734375 399.039062 589.140625 395.757812 596.582031 394.660156 C 608.839844 392.910156 614.3125 360.515625 602.273438 360.515625 C 596.582031 360.515625 595.488281 353.953125 595.488281 321.121094 C 595.488281 283.910156 595.050781 281.722656 585.640625 279.753906 C 567.253906 275.59375 501.808594 268.589844 480.796875 268.589844 L 459.785156 268.589844 L 459.785156 246.703125 C 459.785156 233.351562 457.816406 224.816406 454.75 224.816406 C 451.25 224.816406 450.59375 217.375 452.5625 200.738281 C 455.847656 173.597656 455.628906 173.160156 444.246094 185.636719 Z M 387.339844 221.53125 C 396.96875 266.621094 405.503906 338.628906 401.128906 338.628906 C 399.8125 338.628906 391.933594 328.125 383.835938 315.210938 C 366.546875 288.289062 351.441406 276.25 325.175781 268.371094 C 314.890625 265.308594 306.574219 261.585938 306.574219 260.273438 C 306.574219 257.425781 314.671875 226.128906 317.515625 217.15625 C 321.238281 205.992188 384.929688 209.929688 387.339844 221.53125 Z M 340.5 312.363281 C 393.683594 344.757812 377.488281 430.121094 317.515625 435.152344 C 288.84375 437.5625 279.652344 434.714844 262.140625 418.300781 C 204.359375 364.238281 273.085938 271.214844 340.5 312.363281 Z M 547.335938 310.175781 C 547.335938 314.773438 542.738281 316.742188 532.453125 316.742188 C 524.355469 316.742188 515.378906 313.679688 512.316406 310.175781 C 507.5 304.484375 509.6875 303.609375 527.199219 303.609375 C 542.082031 303.609375 547.335938 305.359375 547.335938 310.175781 Z M 582.355469 332.5 C 582.355469 353.074219 581.261719 356.578125 575.351562 354.390625 C 571.628906 352.855469 567.691406 351.761719 566.597656 351.761719 C 565.722656 351.761719 564.847656 341.914062 564.847656 329.875 C 564.847656 310.832031 565.941406 307.988281 573.601562 307.988281 C 581.261719 307.988281 582.355469 310.832031 582.355469 332.5 Z M 582.355469 332.5 " fill-opacity="1" fill-rule="nonzero"/><path fill="#000000" d="M 286.875 330.53125 C 245.945312 353.074219 260.171875 413.046875 306.574219 413.046875 C 353.414062 413.046875 367.421875 351.761719 325.394531 330.3125 C 313.578125 324.183594 298.257812 324.402344 286.875 330.53125 Z M 317.515625 369.273438 C 317.515625 377.371094 314.890625 380.652344 307.667969 381.53125 C 296.941406 383.0625 290.8125 373.648438 295.191406 362.488281 C 299.570312 350.886719 317.515625 356.359375 317.515625 369.273438 Z M 317.515625 369.273438 " fill-opacity="1" fill-rule="nonzero"/><path fill="#000000" d="M 169.558594 221.96875 C 166.273438 230.503906 177.4375 239.699219 186.410156 236.195312 C 190.351562 234.882812 192.757812 230.066406 191.882812 225.910156 C 190.132812 216.277344 172.839844 213.433594 169.558594 221.96875 Z M 169.558594 221.96875 " fill-opacity="1" fill-rule="nonzero"/><path fill="#000000" d="M 626.347656 239.917969 C 614.75 253.925781 631.820312 275.8125 645.390625 264.429688 C 653.707031 257.644531 654.367188 246.046875 647.144531 238.824219 C 640.140625 231.820312 632.695312 232.257812 626.347656 239.917969 Z M 626.347656 239.917969 " fill-opacity="1" fill-rule="nonzero"/><path fill="#000000" d="M 152.703125 267.496094 C 120.53125 268.589844 109.804688 270.339844 107.835938 275.375 C 106.519531 279.316406 108.054688 281.722656 112.429688 281.722656 C 117.246094 281.722656 118.558594 284.566406 117.027344 291.570312 C 115.714844 297.042969 113.304688 308.425781 111.773438 316.960938 C 109.585938 329 105.863281 333.816406 96.015625 337.316406 C 83.539062 342.132812 78.066406 356.140625 88.792969 356.140625 C 96.234375 355.921875 128.847656 348.261719 156.644531 340.382812 C 184.660156 332.28125 188.820312 317.398438 166.710938 306.019531 C 151.828125 298.136719 144.605469 297.480469 144.605469 303.609375 C 144.605469 306.019531 147.671875 307.988281 151.171875 307.988281 C 163.210938 307.988281 157.957031 320.246094 143.949219 325.058594 C 125.125 331.625 121.84375 331.1875 124.25 322.214844 C 125.34375 318.054688 127.535156 307.332031 129.066406 298.574219 L 131.691406 282.597656 L 156.863281 283.691406 L 181.8125 284.785156 L 184.878906 301.859375 C 191.882812 341.695312 191.882812 341.695312 155.550781 352.417969 C 124.90625 361.175781 122.71875 362.707031 122.71875 373.867188 C 122.71875 389.191406 118.777344 399.914062 112.867188 399.914062 C 110.242188 399.914062 109.367188 392.910156 110.679688 382.40625 L 113.085938 364.894531 L 95.578125 364.894531 C 76.753906 364.894531 73.472656 374.527344 91.636719 377.371094 C 104.988281 379.339844 102.582031 397.070312 88.792969 399.039062 C 78.285156 400.570312 76.316406 411.515625 81.789062 438.65625 L 84.414062 452.445312 L 114.621094 452.445312 C 143.074219 452.445312 154.675781 446.535156 136.945312 441.0625 C 132.785156 439.75 125.78125 436.90625 121.625 434.714844 C 117.464844 432.308594 110.023438 430.558594 105.207031 430.558594 C 88.355469 430.558594 96.671875 422.238281 114.839844 420.925781 C 131.253906 419.832031 133.441406 418.300781 136.726562 405.605469 C 143.511719 379.121094 177.4375 365.113281 202.390625 378.464844 C 211.144531 383.28125 211.363281 382.625 208.734375 365.550781 C 206.984375 355.265625 207.640625 346.726562 210.269531 345.195312 C 216.398438 341.476562 215.738281 329.65625 209.394531 330.96875 C 203.921875 332.0625 198.449219 314.773438 197.574219 293.542969 C 197.355469 285.664062 198.886719 282.378906 201.949219 284.128906 C 204.796875 286.101562 206.109375 283.472656 205.234375 277.125 C 203.484375 265.308594 206.109375 265.746094 152.703125 267.496094 Z M 152.703125 267.496094 " fill-opacity="1" fill-rule="nonzero"/><path fill="#000000" d="M 637.074219 294.199219 C 632.257812 299.011719 635.324219 307.988281 641.671875 307.988281 C 646.265625 307.988281 647.800781 310.613281 646.265625 315.648438 C 645.171875 319.808594 642.765625 329.21875 641.015625 336.441406 C 639.261719 343.664062 634.230469 352.199219 629.851562 355.265625 C 617.15625 364.238281 618.90625 375.839844 631.601562 367.519531 C 641.453125 361.175781 655.023438 358.546875 672.96875 359.859375 C 687.195312 360.957031 713.679688 387.875 713.679688 401.445312 C 713.679688 409.765625 711.929688 412.171875 707.113281 410.203125 C 703.613281 408.890625 701.421875 406.480469 702.300781 404.949219 C 705.363281 399.476562 696.390625 382.40625 690.261719 382.40625 C 686.757812 382.40625 682.820312 379.339844 681.507812 375.839844 C 674.722656 358.546875 621.097656 377.152344 615.40625 398.820312 C 614.09375 404.292969 610.808594 408.671875 608.621094 408.671875 C 606.214844 408.671875 604.242188 411.515625 604.242188 415.234375 C 604.242188 418.738281 606.214844 421.800781 608.621094 421.800781 C 611.027344 421.800781 613 424.429688 613 427.710938 C 613 462.730469 693.761719 461.199219 706.019531 425.523438 C 707.769531 420.707031 712.148438 419.175781 719.808594 420.707031 C 730.972656 422.679688 731.191406 422.238281 731.191406 399.257812 C 730.972656 371.023438 728.34375 366.207031 711.710938 364.238281 C 704.707031 363.363281 698.359375 360.515625 697.265625 357.671875 C 696.171875 353.953125 700.109375 353.511719 711.273438 356.140625 C 721.996094 358.546875 726.8125 358.109375 726.8125 354.609375 C 726.59375 342.789062 717.621094 337.753906 687.851562 333.378906 C 663.121094 329.875 656.773438 327.25 658.742188 322.433594 C 660.054688 318.929688 661.152344 314.117188 661.152344 311.925781 C 661.152344 309.738281 669.03125 307.988281 678.660156 307.988281 C 696.390625 307.988281 698.796875 305.796875 692.667969 296.167969 C 689.386719 290.914062 641.890625 289.382812 637.074219 294.199219 Z M 680.628906 396.414062 C 701.863281 427.054688 660.273438 455.507812 638.167969 425.523438 C 630.945312 415.894531 630.507812 412.609375 635.105469 403.636719 C 645.609375 383.71875 669.03125 379.996094 680.628906 396.414062 Z M 680.628906 396.414062 " fill-opacity="1" fill-rule="nonzero"/><path fill="#000000" d="M 648.238281 406.261719 C 643.640625 411.734375 643.640625 414.359375 648.238281 419.832031 C 656.992188 430.339844 672.09375 426.179688 672.09375 413.046875 C 672.09375 399.914062 656.992188 395.757812 648.238281 406.261719 Z M 648.238281 406.261719 " fill-opacity="1" fill-rule="nonzero"/><path fill="#000000" d="M 449.28125 377.589844 C 438.773438 389.191406 441.617188 409.328125 454.96875 415.894531 C 468.320312 422.460938 482.109375 417.644531 490.210938 403.199219 C 504 378.902344 468.320312 356.578125 449.28125 377.589844 Z M 449.28125 377.589844 " fill-opacity="1" fill-rule="nonzero"/><path fill="#000000" d="M 155.332031 397.507812 C 142.855469 409.984375 141.980469 417.425781 150.953125 434.714844 C 166.710938 465.140625 214.644531 452.882812 214.644531 418.300781 C 214.644531 389.847656 176.5625 376.277344 155.332031 397.507812 Z M 191.882812 418.519531 C 193.195312 429.023438 191.882812 430.558594 182.035156 430.558594 C 169.777344 430.558594 163.867188 421.800781 168.246094 410.640625 C 172.621094 398.820312 190.351562 404.730469 191.882812 418.519531 Z M 191.882812 418.519531 " fill-opacity="1" fill-rule="nonzero"/><path fill="#000000" d="M 707.769531 442.15625 C 702.082031 448.066406 705.144531 452.445312 715.433594 452.445312 C 721.121094 452.445312 727.03125 449.378906 728.34375 445.878906 C 730.972656 439.09375 713.898438 436.03125 707.769531 442.15625 Z M 707.769531 442.15625 " fill-opacity="1" fill-rule="nonzero"/><path fill="#000000" d="M 89.667969 481.992188 C 97.984375 526.425781 110.242188 546.5625 130.378906 547.875 C 150.078125 549.40625 156.863281 541.527344 137.820312 539.121094 C 122.9375 537.367188 126 528.832031 141.324219 529.707031 C 149.421875 530.144531 153.359375 528.175781 153.359375 523.796875 C 153.359375 519.859375 150.734375 518.109375 147.230469 519.421875 C 143.949219 520.734375 137.382812 519.203125 133.003906 515.699219 C 125.78125 510.226562 127.316406 509.570312 148.328125 509.570312 C 169.121094 509.351562 171.527344 510.226562 168.464844 517.011719 C 166.710938 521.171875 163.867188 533.429688 162.554688 544.371094 L 159.925781 563.851562 L 141.324219 562.539062 C 131.035156 561.882812 122.71875 562.539062 122.71875 564.289062 C 122.71875 570.199219 161.679688 621.199219 178.96875 638.050781 L 196.480469 654.90625 L 237.628906 643.304688 C 261.921875 636.300781 294.753906 630.828125 317.953125 629.515625 L 356.914062 627.324219 L 330.648438 635.425781 C 294.535156 646.367188 243.757812 666.066406 234.78125 672.632812 C 227.996094 677.449219 230.1875 679.636719 253.605469 690.800781 L 279.871094 703.277344 L 316.203125 679.199219 C 373.550781 640.894531 424.765625 610.035156 424.765625 613.976562 C 424.765625 621.855469 395 657.96875 364.574219 687.296875 C 328.023438 722.097656 328.023438 721.878906 370.046875 726.039062 L 400.6875 729.101562 L 415.136719 709.183594 C 435.054688 681.386719 442.277344 662.128906 442.277344 636.519531 C 442.277344 610.253906 446.871094 608.722656 461.753906 630.828125 C 474.230469 648.996094 477.296875 687.734375 467.882812 708.308594 C 465.039062 714.4375 463.726562 720.566406 465.039062 721.878906 C 469.199219 725.820312 539.019531 701.742188 541.425781 695.394531 C 549.523438 674.164062 488.238281 606.972656 437.460938 581.363281 L 407.253906 566.042969 L 407.253906 540.214844 C 407.253906 510.882812 420.386719 501.253906 452.125 507.164062 C 470.074219 510.664062 482.109375 500.378906 474.449219 488.121094 C 468.101562 478.273438 457.816406 476.957031 449.71875 485.058594 C 445.996094 488.777344 440.742188 491.84375 437.898438 491.84375 C 435.273438 491.84375 427.171875 494.90625 420.167969 498.628906 L 407.253906 505.195312 L 407.253906 492.0625 C 407.253906 483.085938 405.066406 478.710938 400.6875 478.710938 C 395.875 478.710938 394.125 483.523438 394.125 496.21875 L 394.125 513.730469 L 333.277344 513.730469 C 284.6875 513.730469 271.554688 512.417969 267.175781 507.164062 C 262.359375 501.472656 264.988281 500.597656 286.4375 500.597656 C 305.261719 500.597656 310.949219 499.066406 310.949219 494.03125 C 310.949219 488.777344 304.382812 487.464844 278.121094 487.464844 C 259.078125 487.464844 245.289062 485.714844 245.289062 483.085938 C 245.289062 480.460938 262.796875 478.710938 289.0625 478.710938 C 315.328125 478.710938 332.839844 480.460938 332.839844 483.085938 C 332.839844 485.496094 329.992188 487.464844 326.273438 487.464844 C 322.769531 487.464844 319.707031 490.308594 319.707031 494.03125 C 319.707031 499.285156 326.273438 500.597656 352.535156 500.597656 L 385.367188 500.597656 L 385.367188 485.277344 C 385.367188 469.734375 410.320312 461.417969 418.199219 474.332031 C 419.730469 476.957031 422.796875 477.617188 424.984375 476.300781 C 439.210938 467.546875 419.949219 465.578125 321.894531 465.578125 L 214.644531 465.578125 L 214.644531 478.054688 C 214.644531 494.03125 166.929688 507.164062 142.855469 497.972656 C 129.503906 492.9375 135.851562 487.464844 155.113281 487.464844 C 186.410156 487.464844 201.511719 483.085938 201.511719 473.675781 C 201.511719 466.234375 197.355469 465.578125 144.167969 465.578125 L 86.824219 465.578125 Z M 257.984375 511.980469 C 265.425781 518.109375 273.085938 529.488281 275.054688 537.148438 C 280.089844 556.628906 314.671875 559.035156 327.148438 540.652344 C 331.304688 534.304688 334.371094 527.519531 333.714844 525.769531 C 333.277344 524.015625 343.78125 522.484375 356.914062 522.484375 C 373.769531 522.484375 380.773438 524.015625 379.894531 527.957031 C 379.238281 531.019531 382.304688 532.773438 386.679688 532.117188 C 398.0625 530.144531 395.65625 563.195312 384.273438 565.382812 C 378.582031 566.480469 376.613281 564.070312 376.613281 556.410156 C 376.613281 526.863281 336.996094 525.550781 333.496094 554.878906 L 332.179688 567.355469 L 304.164062 564.945312 C 278.558594 562.539062 275.710938 562.976562 271.117188 571.511719 C 256.011719 599.964844 210.269531 630.390625 210.269531 612.222656 C 210.269531 608.503906 212.894531 605.65625 216.398438 605.65625 C 226.027344 605.65625 267.175781 563.851562 267.175781 553.785156 C 267.175781 522.265625 232.15625 499.722656 205.234375 514.167969 C 182.691406 526.207031 181.8125 570.417969 203.703125 582.675781 C 214.207031 588.585938 208.515625 604.125 192.757812 612.222656 C 176.78125 620.539062 170.871094 620.539062 170.871094 612.222656 C 170.871094 608.503906 173.496094 605.65625 176.5625 605.65625 C 193.851562 605.65625 199.761719 593.621094 188.378906 581.582031 C 147.230469 537.804688 212.019531 473.238281 257.984375 511.980469 Z M 240.910156 531.238281 C 256.667969 547 246.382812 575.015625 224.714844 575.015625 C 215.957031 575.015625 201.511719 558.597656 201.511719 548.75 C 201.511719 538.460938 216.179688 522.484375 225.589844 522.484375 C 229.308594 522.484375 236.09375 526.425781 240.910156 531.238281 Z M 361.949219 551.15625 C 365.667969 560.789062 356.476562 569.761719 349.691406 562.976562 C 344.21875 557.503906 347.722656 544.371094 354.726562 544.371094 C 357.351562 544.371094 360.636719 547.4375 361.949219 551.15625 Z M 289.0625 583.113281 C 289.0625 596.464844 275.710938 611.566406 259.515625 616.382812 C 244.195312 620.980469 247.257812 608.503906 262.796875 602.59375 C 272.429688 599.089844 276.804688 593.839844 278.777344 584.207031 C 282.058594 567.136719 289.0625 566.480469 289.0625 583.113281 Z M 328.460938 581.363281 C 328.460938 594.058594 312.921875 612.441406 298.914062 616.601562 C 285.78125 620.320312 285.5625 609.378906 298.476562 603.46875 C 307.886719 599.089844 312.484375 592.960938 317.078125 578.296875 C 320.582031 566.917969 328.460938 569.105469 328.460938 581.363281 Z M 367.859375 581.363281 C 367.859375 595.152344 351.660156 613.316406 336.121094 616.820312 C 320.144531 620.761719 323.425781 610.691406 341.59375 600.40625 C 348.816406 596.246094 354.726562 589.242188 354.726562 584.644531 C 354.726562 580.269531 356.039062 575.234375 357.570312 573.484375 C 363.480469 567.574219 367.859375 570.855469 367.859375 581.363281 Z M 407.253906 581.363281 C 407.253906 595.152344 391.058594 613.316406 375.519531 616.820312 C 359.980469 620.539062 359.539062 612.441406 375.082031 604.78125 C 386.679688 599.089844 391.277344 593.179688 395.875 578.296875 C 399.375 566.917969 407.253906 569.105469 407.253906 581.363281 Z M 407.253906 581.363281 " fill-opacity="1" fill-rule="nonzero"/><path fill="#000000" d="M 216.179688 542.183594 C 212.675781 551.15625 217.492188 561.882812 224.933594 561.882812 C 228.214844 561.882812 233.46875 558.816406 236.53125 555.316406 C 242.878906 547.65625 235.65625 535.617188 224.933594 535.617188 C 221.429688 535.617188 217.710938 538.460938 216.179688 542.183594 Z M 216.179688 542.183594 " fill-opacity="1" fill-rule="nonzero"/><path fill="#000000" d="M 551.714844 475.863281 C 528.292969 480.460938 529.167969 480.679688 588.921875 483.523438 C 622.628906 485.058594 664.652344 489.871094 682.164062 494.03125 C 699.890625 497.972656 714.773438 500.816406 715.652344 499.941406 C 724.625 488.996094 721.121094 475.207031 708.648438 472.582031 C 686.976562 468.421875 578.195312 470.613281 551.714844 475.863281 Z M 551.714844 475.863281 " fill-opacity="1" fill-rule="nonzero"/><path fill="#000000" d="M 499.183594 500.160156 C 486.050781 504.316406 497.652344 506.945312 547.117188 511.324219 C 583.667969 514.605469 634.667969 528.832031 666.621094 545.027344 L 691.792969 557.722656 L 699.234375 541.964844 C 708.648438 522.484375 707.550781 521.609375 654.585938 508.914062 C 612.78125 498.628906 519.757812 493.59375 499.183594 500.160156 Z M 499.183594 500.160156 " fill-opacity="1" fill-rule="nonzero"/><path fill="#000000" d="M 460.878906 520.953125 C 447.964844 523.796875 448.183594 531.238281 461.316406 531.238281 C 500.933594 531.238281 594.394531 569.105469 630.070312 599.527344 L 649.113281 616.164062 L 661.808594 602.15625 C 677.785156 583.988281 677.566406 581.582031 657.867188 569.324219 C 605.335938 536.929688 504 511.980469 460.878906 520.953125 Z M 460.878906 520.953125 " fill-opacity="1" fill-rule="nonzero"/><path fill="#000000" d="M 421.042969 546.34375 C 421.921875 551.15625 432.863281 557.941406 450.375 564.507812 C 488.675781 578.953125 532.671875 609.160156 563.96875 642.648438 L 590.234375 670.664062 L 608.183594 656.875 C 630.726562 639.582031 630.507812 638.050781 602.710938 615.726562 C 541.644531 566.917969 415.574219 518.765625 421.042969 546.34375 Z M 421.042969 546.34375 " fill-opacity="1" fill-rule="nonzero"/></svg>