<svg xmlns="http://www.w3.org/2000/svg" width="559" height="562" viewBox="0 0 559 562"><clipPath id="cl_3"><path d="M0 0h559v562H0z"/></clipPath><g clip-path="url(#cl_3)"><path fill="#334250" d="M108.681 55.244a3622 3622 0 0 1 60.556-34.768c10.23 10.745 23.44 26.832 33.151 38.266l8.07-3.19c-3.339 8.197-7.514 16.724-12.316 24.15-9.403-8.067-24.26-26.317-32.554-36.192l-35.056 20.1a3453 3453 0 0 1 15.795 45.882c-14.474 10.068-26.495 24.558-37.957 37.826a3668 3668 0 0 0-45.995-15.66c-5.566 10.937-13.54 24.187-19.68 35.087 11.84 11.06 24.746 21.668 36.24 33.02-6.147 16.88-11.093 31.464-12.769 49.556l-48.647 11.16.043 39.893a304 304 0 0 1 30.231 7.093c-.903-7.028-1.164-15.217-1.3-22.279 13.463.995 30.102 3.343 43.394 5.576a423 423 0 0 0 18.81 4.31c23.764 4.977 46.817 13.99 69.347 22.818-15.87-50.9-1.501-96.82 42.151-127.983a309 309 0 0 0 15.004 12.366c-4.577 2.812-8.56 5.14-12.72 8.554a2425 2425 0 0 0 25.065 25.663c7.083-4.452 14.47-7.239 22.486-9.436l.031 18.57c-17.486 4.505-28.926 21.304-26.736 39.259 2.19 17.954 17.33 31.499 35.384 31.653s33.424-13.129 35.92-31.044c2.495-17.915-8.658-34.906-26.064-39.71-.53-6.25-.362-12.653-.305-18.935 10.506 2.846 12.766 3.728 21.917 9.55l25.25-25.518c-4.382-3.517-7.153-5.716-12.087-8.521 4.851-4.085 10.034-8.24 14.283-12.921 36.469 23.407 55.616 70.202 46.703 112.42-.997 4.725-2.789 11.885-4.724 16.262 24.443-9.946 44.411-16.987 70.124-23.294 5.294-.737 13.575-2.726 18.642-4.397 13.334-2.06 29.75-4.673 43.217-5.525-.204 7.162-.382 15.498-1.321 22.537 5.358-2.062 24.393-5.925 30.228-6.84l-.03-40.085c-15.373-3.032-32.642-7.335-47.915-11.013-4.093-20.904-5.873-29.541-13.712-49.9a1335 1335 0 0 1 36.706-32.688c-6.686-11.022-13.569-23.814-19.954-35.128-4.182 1.044-12.465 4.25-16.802 5.752a2270 2270 0 0 1-29.171 9.753c-10.786-14.317-24.149-26.514-37.616-38.181 5.312-14.824 10.147-30.42 15.235-45.404C416.21 56.9 403.792 50 392.523 43.342c-9.061 10.945-22.212 27.726-33.295 36.11-3.66-6.524-8.424-17.063-11.848-24.044l8.076 2.833a1117 1117 0 0 0 33.085-37.346c6.258 2.774 16.485 8.941 22.568 12.456A2357 2357 0 0 0 449.4 55.285c-5.837 14.47-11.336 32.923-16.234 47.981 8.471 7.793 14.833 14.378 22.607 22.757l48.316-16.024c11.275 18.222 23.55 41.637 34.024 60.543-12.58 10.791-25.219 22.563-37.531 33.73a872 872 0 0 1 7.944 30.114c16.072 4.338 33.562 8 49.888 11.752l.012 68.702c-16.092 2.948-34.083 7.563-49.935 11.764a474 474 0 0 1-7.93 29.421l38.215 34.638c-11.584 19.794-22.885 40.423-34.766 59.913-15.807-4.414-33.431-10.57-49.155-15.682-6.974 7.98-13.931 14.403-21.758 21.402 5.182 14.922 11.272 34.277 15.483 49.486A3512 3512 0 0 1 389 540.696c-9.759-12.293-23.48-26.421-34.141-38.533-10.49 3.967-19.04 6.127-29.831 8.608-3.072 16.11-7.805 33.57-11.442 49.786-22.426-.742-46.316-.214-68.804-.017q-6.105-24.84-11.729-49.794c-9.248-1.989-20.734-5.628-29.705-8.607-10.682 13-23.078 25.258-34.082 38.482-17.308-9.855-43.91-24.362-59.957-34.914 3.928-14.083 10.805-35.218 15.773-48.96-6.148-5.619-16.92-15.578-21.996-21.934l-49.109 16.21a3494 3494 0 0 0-34.71-60.501 1421 1421 0 0 0 38.122-34.285 510 510 0 0 1-7.896-29.645c-14.378-4.348-34.948-8.508-49.888-11.968Q0 280.291-.558 245.96c12.776-1.702 36.884-8.327 50.087-11.594a416 416 0 0 1 8.384-29.735c-12.561-10.596-25.817-22.997-38.113-34.07 10.04-19.164 23.287-41.618 34.051-60.543 15.079 4.227 33.26 10.97 48.243 16.183 7.785-8.507 14.328-14.964 23.01-22.447-5.557-13.722-11.054-33.63-16.423-48.51m111.623 431.14c12.887-15.082 35.513-35.31 50.73-48.154 67.666-57.114 130.729-93.499 217.49-110.727 1.065-5.315 1.494-10.64 2.862-15.895 5.224-.81 13.493-2.953 18.878-4.167.939-7.039 1.117-15.375 1.321-22.537-13.468.852-29.883 3.465-43.217 5.525-5.067 1.671-13.348 3.66-18.642 4.397-25.713 6.307-45.681 13.348-70.124 23.294 1.935-4.377 3.727-11.537 4.724-16.262 8.913-42.218-10.234-89.013-46.703-112.42-4.25 4.68-9.432 8.836-14.283 12.92 4.934 2.806 7.705 5.005 12.087 8.522l-25.25 25.518c-9.15-5.822-11.41-6.704-21.917-9.55-.057 6.282-.224 12.684.305 18.936 17.406 4.803 28.559 21.794 26.064 39.709s-17.865 31.198-35.92 31.044c-18.054-.154-33.194-13.699-35.384-31.653s9.25-34.754 26.736-39.258l-.03-18.571c-8.017 2.197-15.404 4.984-22.487 9.436a2425 2425 0 0 1-25.066-25.663c4.16-3.414 8.144-5.742 12.72-8.554a309 309 0 0 1-15.003-12.366c-43.652 31.164-58.022 77.083-42.15 127.983-22.531-8.827-45.584-17.841-69.349-22.817a423 423 0 0 1-18.81-4.311c-13.29-2.233-29.93-4.58-43.393-5.576.136 7.062.397 15.25 1.3 22.28 2.936.733 16.909 4.554 18.731 3.858 1.519 4.119 1.931 11.434 3.385 16.312 1.849 7.139 3.463 13.44 5.882 20.44 3.29 8.896 5.935 15.927 10.639 24.26 4.812 10.84 7.824 14.51 13.59 24.152 21.621 30.303 45.045 54.153 78.188 72.142 4.198 2.283 13.967 6.709 16.88 8.553 7.642 3.045 18.63 6.356 25.216 9.2m195.943-20.94c-15.985 10.999-27.64 19.175-45.68 26.913a705 705 0 0 0 16.959 19.116l5.487 5.795 34.362-19.947c-1.567-4.678-8.906-29.73-11.128-31.877m99.657-71.07c-6.468-6.046-17.807-16.961-24.905-22.016-9.096 18.958-15.413 28.819-27.134 46.141a546 546 0 0 1 25.743 8.461c2.347.797 4.177 1.77 6.436 1.094 5.973-7.33 14.223-25.173 19.86-33.68m-385.02 102.637c11.413 7.007 23.445 13.45 34.669 20.444l6.502-7.359a944 944 0 0 1 15.721-17.336c-17.332-8.824-30.575-15.765-46.385-27.654a1483 1483 0 0 1-10.506 31.905m120.78 13.222 7.369 32.051 39.91-.059 1.898-8.01a1462 1462 0 0 0 5.572-24.072 282 282 0 0 1-54.748.09M42.314 393.99a2131 2131 0 0 1 20.215 35.085l7.071-2.436a928 928 0 0 1 24.896-8.154 340 340 0 0 1-16.143-24.776c-2.03-3.5-9.964-18.982-11.906-21.075a1423 1423 0 0 0-24.133 21.356m415.359 2.734c-47.17 16.903-93.127 44.867-131.866 76.34-6.25 5.077-18.569 14.598-23.629 20.389 9.037-.777 19.127-2.835 27.877-5.098a218.8 218.8 0 0 0 109.924-68.102c6.318-7.238 12.831-15.242 17.694-23.53m24.213-48.659c-18.378 4.175-36.277 8.764-53.989 15.34-67.26 24.973-137.313 76.29-186.687 128.002 8.367.999 24.728 3.29 32.348 2.967a510 510 0 0 1 52.384-44.954c46.25-35.188 90.246-61.082 146.134-77.054 2.386-3.94 9.28-19.903 9.81-24.301"/><path fill="#949405" d="M337.623 189.438c36.469 23.407 55.616 70.202 46.703 112.42-.997 4.725-2.789 11.885-4.724 16.262 24.443-9.946 44.411-16.987 70.124-23.294 5.294-.737 13.575-2.726 18.642-4.397 13.334-2.06 29.75-4.673 43.217-5.525-.204 7.162-.382 15.498-1.321 22.537-5.385 1.214-13.654 3.358-18.878 4.167.068-2.612.517-2.932-.683-4.856-3.5-.662-20.321 2.813-24.572 3.672-91.412 18.462-172.372 71.685-239.43 134.901-10.663 10.052-21.863 20.9-31.613 31.859-2.913-1.844-12.682-6.27-16.88-8.553 4.71-5.873 14.185-15.698 19.71-20.702-28.85-19.645-64.685-40.772-97.899-51.44-5.765-9.642-8.777-13.311-13.59-24.151 47.203 12.673 84.978 34.915 124.845 62.266 5.856-5.766 12.146-11.333 18.242-16.86-44.788-33.57-98.686-58.9-153.725-69.667-2.42-7-4.033-13.301-5.882-20.44 65.24 9.735 120.935 40.722 174.39 77.371 6.076-5.534 12.697-10.763 19.087-15.955-51.031-36.162-106.614-65.177-168.103-77.838-4.772-.982-23.543-4.965-27.429-4.34-1.645 1.753-1.137 1.463-1.33 4.45-1.822.696-15.795-3.125-18.73-3.859-.904-7.028-1.165-15.217-1.301-22.279 13.463.995 30.102 3.343 43.394 5.576a423 423 0 0 0 18.81 4.31c23.764 4.977 46.817 13.99 69.347 22.818-15.87-50.9-1.501-96.82 42.151-127.983a309 309 0 0 0 15.004 12.366c-4.577 2.812-8.56 5.14-12.72 8.554a2425 2425 0 0 0 25.065 25.663c7.083-4.452 14.47-7.239 22.486-9.436l.031 18.57c-17.486 4.505-28.926 21.304-26.736 39.259 2.19 17.954 17.33 31.499 35.384 31.653s33.424-13.129 35.92-31.044c2.495-17.915-8.658-34.906-26.064-39.71-.53-6.25-.362-12.653-.305-18.935 10.506 2.846 12.766 3.728 21.917 9.55l25.25-25.518c-4.382-3.517-7.153-5.716-12.087-8.521 4.851-4.085 10.034-8.24 14.283-12.921m15.04 141.494c6.106-2.112 21.288-9.5 26.94-12.812 1.934-4.377 3.726-11.537 4.723-16.262 8.913-42.218-10.234-89.013-46.703-112.42-4.25 4.68-9.432 8.836-14.283 12.92 4.934 2.806 7.705 5.005 12.087 8.522l-25.25 25.518c-9.15-5.822-11.41-6.704-21.917-9.55-.057 6.282-.224 12.684.305 18.936 17.406 4.803 28.559 21.794 26.064 39.709s-17.865 31.198-35.92 31.044c-18.054-.154-33.194-13.699-35.384-31.653s9.25-34.754 26.736-39.258l-.03-18.571c-8.017 2.197-15.404 4.984-22.487 9.436a2425 2425 0 0 1-25.066-25.663c4.16-3.414 8.144-5.742 12.72-8.554a309 309 0 0 1-15.003-12.366c-43.652 31.164-58.022 77.083-42.15 127.983 4.795 2.726 22.797 11.572 27.522 12.736 2.579 1.803 3.716 2.6 6.55 3.907a363 363 0 0 0 16.172 9.163 763 763 0 0 1 41.702 26.79c3.13 2.64 5.735 4.709 9.037 7.154l9.013-6.566c12.737-9.494 28.043-19.108 41.762-27.023 4.335-2.921 11.596-6.684 16.369-9.32 1.439-.678 4.958-2.896 6.49-3.8"/><path fill="#334250" d="M337.623 189.438c36.469 23.407 55.616 70.202 46.703 112.42-.997 4.725-2.789 11.885-4.724 16.262-5.651 3.313-20.833 10.7-26.94 12.812 8.95-15.783 11.944-23.248 15.019-41.155-10.385-.834-24.81-.444-35.517-.437-2.178 9.586-3.644 13.756-9.353 22.215l23.36 23.178c-4.772 2.635-12.033 6.398-16.368 9.319a2267 2267 0 0 0-19.382-19.563c-8.042 4.701-13.274 7.59-22.528 9.427-.056 12.034-.357 25.231.148 37.159l-9.013 6.566a170 170 0 0 1-9.037-7.153q-.055-18.34.198-36.678c-9.664-2.137-14.18-4.39-22.484-9.495l-19.416 19.382a363 363 0 0 1-16.172-9.163c7.785-7.424 15.066-15.588 23.086-22.675-5.318-7.648-7.246-13.555-9.156-22.463-11.1-.368-24.59-.161-35.719.189 2.346 16.65 6.754 26.843 15.239 41.042-4.725-1.164-22.727-10.01-27.523-12.736-15.87-50.9-1.501-96.82 42.151-127.983a309 309 0 0 0 15.004 12.366c-4.577 2.812-8.56 5.14-12.72 8.554a2425 2425 0 0 0 25.065 25.663c7.083-4.452 14.47-7.239 22.486-9.436l.031 18.57c-17.486 4.505-28.926 21.304-26.736 39.259 2.19 17.954 17.33 31.499 35.384 31.653s33.424-13.129 35.92-31.044c2.495-17.915-8.658-34.906-26.064-39.71-.53-6.25-.362-12.653-.305-18.935 10.506 2.846 12.766 3.728 21.917 9.55l25.25-25.518c-4.382-3.517-7.153-5.716-12.087-8.521 4.851-4.085 10.034-8.24 14.283-12.921m-147.46 81.955 26.4.112 9.436-.08c2.004-8.345 4.183-14.83 9.14-22.025-5.405-5.807-19.736-21.1-25.581-25.577-11.625 17.412-15.925 26.657-19.394 47.57m132.862-22.186c5.245 8.23 7.075 12.474 9.48 22.049l12.902-.016 22.32-.034c-2.369-12.016-9.448-39.57-19.85-47.24a1870 1870 0 0 1-24.852 25.24"/><path fill="#949405" d="M488.524 327.503c-.911 3.398-4.728 19-6.639 20.562-18.378 4.175-36.277 8.764-53.989 15.34-67.26 24.973-137.313 76.29-186.687 128.002-6.914-1.374-14.046-3.29-20.905-5.022 12.887-15.083 35.513-35.312 50.73-48.155 67.666-57.114 130.729-93.499 217.49-110.727M273.557 494.374a510 510 0 0 1 52.384-44.954c46.25-35.188 90.246-61.082 146.134-77.054-3.618 6.929-9.433 18.801-14.403 24.358-47.17 16.903-93.127 44.867-131.866 76.34-6.25 5.077-18.569 14.598-23.629 20.389-10.583 1.095-17.985 1.133-28.62.921M258.9 201.267c-11.494-5.73-20.136-10.763-29.346-19.762-30.59-29.89-31.39-74.948-12.724-111.592 14.393-28.255 36.138-51.381 62.06-69.687 50.313 32.592 100.12 108.33 60.944 167.114-10.401 15.607-23.99 25.252-40.227 34.125q.169-9.693.035-19.387c23.582-19.188 32.361-28.539 36.208-59.262-20.678 18.837-49.175 37.76-47.77 68.155.492 10.623-1.258 25.595.18 35.877-.057 6.282-.224 12.684.305 18.936a35.9 35.9 0 0 0-18.504-.158l-.03-18.571c.28-67.449 2.475-58.231-48.254-104.523 6.856 33.178 11.04 38.557 37.156 60.041zm29.436-57.903 4.645-4.717c13.233-12.586 27.247-25.328 40.164-38.121-1.984-6.578-5.228-18.376-9.35-23.56-24.618 22.312-37.548 30.276-35.46 66.398M269.233 31.33a212.7 212.7 0 0 0-25.976 29.472l13.917 13.304q6.3 5.984 12.684 11.877c.094-9.055.84-47.53-.625-54.653m45.531 29.555c-7.009-9.075-17.389-23.398-26.698-29.712q-.184 27.81.054 55.62a912 912 0 0 1 14.184-14.252zM225.05 100.68l40.211 38.207 4.736 4.478c.272-19.17.321-31.585-14.61-46.44-5.256-5.231-15.736-15.671-21.524-19.63-3.854 8.523-6.401 14.372-8.813 23.385"/><path fill="#334250" d="M365.947 110.608c15.718 7.146 32.513 19.585 44.815 31.643 42.002 41.169 56.445 91.032 57.606 148.178-5.067 1.671-13.348 3.66-18.642 4.397 5.847-66.962-27.697-128.304-83.881-163.51.342-7.539.38-13.172.102-20.708M89.887 290.763c.117-59.464 14.351-103.255 56.808-147.257 10.868-11.263 31.076-26.16 45.35-32.755.077 6.555-.017 14.113.328 20.585-38.895 22.997-67.093 60.516-78.405 104.32-5.631 21.465-6.747 37.572-5.272 59.418a423 423 0 0 1-18.81-4.311"/></g></svg>